<?xml version="1.0" encoding="utf-8"?>
<svg version="1.1" id="Layer_1" xmlns="http://www.w3.org/2000/svg" xmlns:xlink="http://www.w3.org/1999/xlink" x="0px" y="0px"
	 viewBox="0 0 1658 1658.718" enable-background="new 0 0 1658 1658.718" xml:space="preserve">
<g>
	<g>
		<g>
			<path fill="#FF0000" d="M829,29.706L829,29.706c413.931,0.325,799.328,385.723,799.654,799.654
				c-0.325,413.931-385.723,799.328-799.654,799.654l0,0c-413.931-0.325-799.328-385.723-799.654-799.654
				C29.672,415.428,415.069,30.031,829,29.706z"/>
			<path fill="#FFFFFF" d="M829,29.706L829,29.706c148.878-6.575,305.003,80.935,408.972,221.28
				c114.252,154.475,174.872,363.902,174.933,578.373c-0.062,214.471-60.681,423.898-174.933,578.373
				c-103.969,140.346-260.093,227.856-408.972,221.28l0,0c-148.878,6.575-305.003-80.935-408.972-221.28
				c-114.252-154.475-174.872-363.902-174.933-578.373c0.062-214.471,60.681-423.898,174.933-578.373
				C523.997,110.64,680.122,23.13,829,29.706z"/>
			<path fill="#FF0000" stroke="#FF0000" stroke-width="5.331" d="M823.422,1601.47c3.718,0.004,7.437,0.004,11.155,0
				c1.709-26.119,2.481-60.537,2.982-102.908c0.589-49.951,0.626-107.002,0.345-170.557c-4.932,0.879-9.854,1.755-14.766,2.63
				c-0.99,62.912-1.613,119.385-1.592,168.841C821.567,1541.438,821.953,1575.548,823.422,1601.47z"/>
			<path fill="#FF0000" stroke="#FF0000" stroke-width="5.331" d="M829.704,57.245c-12.135,52.343-38.299,128.667-69.861,228.504
				c-7.84-21.68-14.698-42.6-20.335-62.746c-25.486,133.062-39.63,293.101-45.593,469.705
				c-41.782-91.871-77.899-180.619-101.563-265.848c-7.035,32.76-13.285,66.44-18.764,100.918
				c-41.829-19.276-81.121-38.401-117.388-57.776c-11.103,97.139-9.261,200.225,2.321,305.294
				c-17.449,0.941-34.654,1.887-51.602,2.843c53.655,137.749,127.638,269.763,204.682,395.435
				c-13.032,36.759-23.988,72.629-32.201,107.489c26.727,41.618,53.347,80.903,79.308,117.845
				c6.25,30.721,13.733,59.483,22.721,85.921c30.07-18.613,65.296-37.352,104.739-57.067c13.606-13.441,28.116-27.141,43.412-41.161
				c19.942,16.126,38.698,31.815,56.063,47.193c35.388,18.803,66.904,36.737,93.698,54.544
				c9.911-27.859,18.058-58.386,24.771-91.124c26.342-36.466,53.341-75.203,80.447-116.21
				c-8.746-33.292-20.139-67.484-33.549-102.478c75.602-125.294,147.91-257.219,200.241-394.871
				c-14.377-2.006-28.941-3.998-43.683-5.982c10.439-107.961,10.486-213.83-3.007-313.235
				c-35.064,19.537-73.155,38.828-113.781,58.267c-5.809-34.49-12.411-68.164-19.815-100.894
				c-23.585,84.913-60.051,173.391-102.427,265.041c-5.958-173.527-20.171-330.902-45.911-462.035
				c-5.951,19.067-13.066,38.809-21.127,59.22C869.497,184.963,842.901,109.212,829.704,57.245z"/>
		</g>
	</g>
</g>
</svg>
